<?xml version="1.0" encoding="UTF-8" standalone="no" ?>
<!DOCTYPE svg PUBLIC "-//W3C//DTD SVG 1.1//EN" "http://www.w3.org/Graphics/SVG/1.1/DTD/svg11.dtd">
<svg xmlns="http://www.w3.org/2000/svg" xmlns:xlink="http://www.w3.org/1999/xlink" version="1.1" width="1080" height="1080" viewBox="0 0 1080 1080" xml:space="preserve">
<desc>Created with Fabric.js 5.2.4</desc>
<defs>
</defs>
<g transform="matrix(1 0 0 1 540 540)" id="a4c75bac-940c-484f-a9d8-eeda25b93984"  >
<rect style="stroke: none; stroke-width: 1; stroke-dasharray: none; stroke-linecap: butt; stroke-dashoffset: 0; stroke-linejoin: miter; stroke-miterlimit: 4; fill: rgb(255,255,255); fill-rule: nonzero; opacity: 1; visibility: hidden;" vector-effect="non-scaling-stroke"  x="-540" y="-540" rx="0" ry="0" width="1080" height="1080" />
</g>
<g transform="matrix(1 0 0 1 540 540)" id="29dd0a4a-0223-4447-9a29-7ba073545317"  >
</g>
<g transform="matrix(3.94 0 0 3.94 562.99 395.65)"  >
<rect style="stroke: none; stroke-width: 1; stroke-dasharray: none; stroke-linecap: butt; stroke-dashoffset: 0; stroke-linejoin: miter; stroke-miterlimit: 4; fill: rgb(4,57,217); fill-rule: nonzero; opacity: 1;" vector-effect="non-scaling-stroke"  x="-137" y="-284" rx="10" ry="10" width="274" height="568" />
</g>
<g transform="matrix(3.94 0 0 3.94 339.33 1227.89)"  >
<path style="stroke: none; stroke-width: 1; stroke-dasharray: none; stroke-linecap: butt; stroke-dashoffset: 0; stroke-linejoin: miter; stroke-miterlimit: 4; fill: rgb(242,92,5); fill-rule: evenodd; opacity: 1;" vector-effect="non-scaling-stroke"  transform=" translate(-80.23, -495.23)" d="M -34.692 543.101 C 3.247 632.538 168.767 685.017 211.96 612.52 C 255.154 540.023 145.861 526.867 107.22500000000001 451.951 C 68.59 377.035 38.56800000000001 330.27700000000004 -17.25699999999999 347.34400000000005 C -73.08099999999999 364.41200000000003 -72.63199999999999 453.66400000000004 -34.69299999999999 543.1010000000001 Z" stroke-linecap="round" />
</g>
<g transform="matrix(3.94 0 0 3.94 818.23 1353.65)"  >
<path style="stroke: rgb(4,57,217); stroke-width: 34; stroke-dasharray: none; stroke-linecap: butt; stroke-dashoffset: 0; stroke-linejoin: miter; stroke-miterlimit: 4; fill: rgb(242,70,7); fill-rule: evenodd; opacity: 1;" vector-effect="non-scaling-stroke"  transform=" translate(-197.59, -522.95)" d="M 233.095 601.153 C 293.774 572.875 325.93399999999997 457.627 274.97 429.625 C 224.00500000000002 401.622 217.57300000000004 477.204 166.91100000000003 505.61199999999997 C 116.24900000000002 534.02 84.77100000000003 555.819 97.86700000000003 593.853 C 110.96300000000004 631.887 172.41600000000005 629.4309999999999 233.09500000000003 601.1529999999999 Z" stroke-linecap="round" />
</g>
<g transform="matrix(3.94 0 0 3.94 762.52 1172.98)"  >
<path style="stroke: rgb(255,255,255); stroke-width: 7; stroke-dasharray: none; stroke-linecap: round; stroke-dashoffset: 0; stroke-linejoin: bevel; stroke-miterlimit: 4; fill: none; fill-rule: nonzero; opacity: 1;" vector-effect="non-scaling-stroke"  transform=" translate(-187.38, -481.04)" d="M 165.305 469.097 L 175.912 458.291 M 209.461 474.581 L 196.955 464.07800000000003 M 187.56 488.991 L 180.65200000000002 503.789" stroke-linecap="round" />
</g>
<g transform="matrix(3.94 0 0 3.94 39.43 1182.46)"  >
<path style="stroke: rgb(242,92,5); stroke-width: 31; stroke-dasharray: none; stroke-linecap: butt; stroke-dashoffset: 0; stroke-linejoin: miter; stroke-miterlimit: 4; fill: rgb(3,74,166); fill-rule: nonzero; opacity: 1;" vector-effect="non-scaling-stroke"  transform=" translate(-0.31, -479.89)" d="M 0.305 546.891 C 37.308 546.891 67.305 516.894 67.305 479.89099999999996 C 67.305 442.8879999999999 37.30800000000001 412.89099999999996 0.3050000000000068 412.89099999999996 C -36.69799999999999 412.89099999999996 -66.695 442.888 -66.695 479.89099999999996 C -66.695 516.894 -36.69799999999999 546.891 0.3050000000000068 546.891 Z" stroke-linecap="round" />
</g>
<g transform="matrix(0 0 0 0 0 0)"  >
<g style=""   >
</g>
</g>
<g transform="matrix(0 0 0 0 0 0)"  >
<g style=""   >
</g>
</g>
<g transform="matrix(NaN NaN NaN NaN 0 0)"  >
<g style=""   >
</g>
</g>
</svg>